<?xml version="1.0" encoding="UTF-8"?>
<svg width="100px" height="291px" viewBox="0 0 100 291" version="1.1" xmlns="http://www.w3.org/2000/svg" xmlns:xlink="http://www.w3.org/1999/xlink">
    <!-- Generator: Sketch 52.6 (67491) - http://www.bohemiancoding.com/sketch -->
    <title>nose</title>
    <desc>Created with Sketch.</desc>
    <g id="Page-1" stroke="none" stroke-width="1" fill="none" fill-rule="evenodd">
        <path d="M64.275441,0 C86.1544992,0 89.2650206,22.3733242 90.2699015,73.7543689 C90.5491576,88.0331415 90.4070281,119.786423 90.2699015,135.865244 C90.0513431,161.492396 98.8449078,200.592774 99.7633387,234.772111 C100.492281,261.899631 94.9020148,287.393516 85.5613877,290.171014 C79.4901617,291.976334 63.3143436,285.337251 59.3733567,274.970484 C54.3773822,261.828572 58.4148436,238.546743 49.1522585,237.785926 C38.1354782,236.881021 40.7425045,259.893913 35.9530422,274.970484 C32.0666466,287.204325 20.4858221,292.341698 15.3530817,290.171014 C7.97630372,287.051305 -1.30555524,259.797111 0.152715214,240.749478 C2.78250211,206.399734 22.8773567,168.53855 28.1389128,132.72964 C31.2959856,111.243347 28.7431207,78.6566019 30.7232468,60.4831448 C35.2326443,19.096213 46.5478052,5.79837502e-15 64.275441,0 Z" id="nose" fill="#E8A74B"></path>
    </g>
</svg>