<?xml version="1.0" encoding="UTF-8"?>
<svg width="380px" height="515px" viewBox="0 0 380 515" version="1.1" xmlns="http://www.w3.org/2000/svg" xmlns:xlink="http://www.w3.org/1999/xlink">
    <!-- Generator: Sketch 52.6 (67491) - http://www.bohemiancoding.com/sketch -->
    <title>teeth</title>
    <desc>Created with Sketch.</desc>
    <g id="Page-1" stroke="none" stroke-width="1" fill="none" fill-rule="evenodd" stroke-linecap="square">
        <g id="mouth" transform="translate(-48.000000, -38.000000)" stroke="#979797">
            <g id="teeth" transform="translate(48.000000, 38.000000)">
                <path d="M9.28267045,28.5 L43.5,28.5" id="Line-2"></path>
                <path d="M7.5,57.5 L45.7414773,53" id="Line-3"></path>
                <path d="M9.28267045,81.5 L45.5426136,78.5" id="Line-4"></path>
                <path d="M12.5298295,108.5 L43.5,104.5" id="Line-5"></path>
                <path d="M13.5,130.5 L41.7542614,126.5" id="Line-6"></path>
                <path d="M10.5,159.5 L38.5071023,156.5" id="Line-7"></path>
                <path d="M8.74147727,180.5 L35.5,180.5" id="Line-8"></path>
                <path d="M5.49431818,203.5 L33.5,203.5" id="Line-9"></path>
                <path d="M2.5,231.5 L30.5,232.5" id="Line-10"></path>
                <path d="M0.5,255.484604 L29.5,255.484604" id="Line-11"></path>
                <path d="M0.5,279.5 L28.765625,279.5" id="Line-12"></path>
                <path d="M3.5,306.5 L29.5,305.5" id="Line-13"></path>
                <path d="M9.5,332.5 L33.5,327.5" id="Line-14"></path>
                <path d="M20.5,358.5 L40.0539773,350.5" id="Line-15"></path>
                <path d="M32.5,381.5 L48.5,370.5" id="Line-16"></path>
                <path d="M46.5,405 L60.1548295,393.5" id="Line-17"></path>
                <path d="M56.9076705,421.5 L72.5,412.5" id="Line-18"></path>
                <path d="M67.5,439.5 L85.5,430.5" id="Line-19"></path>
                <path d="M76.5,455.5 L95.8735795,443.5" id="Line-20"></path>
                <path d="M90.5,475.5 L108.5,456.5" id="Line-21"></path>
                <path d="M104.5,490 L119.5,467.5" id="Line-22"></path>
                <path d="M123.5,501.5 L133.757102,478.5" id="Line-23"></path>
                <path d="M142.5,509.5 L149.5,489.5" id="Line-24"></path>
                <path d="M170.558239,514.5 L170.558239,498.5" id="Line-25"></path>
                <path d="M195.5,512.5 L195.453125,496.5" id="Line-26"></path>
                <path d="M221.5,504.5 L212.5,488.5" id="Line-27"></path>
                <path d="M247.5,486.5 L232.5,471.5" id="Line-28"></path>
                <path d="M266.890625,466 L251.5,450.5" id="Line-29"></path>
                <path d="M287.455966,443 L265.5,428.5" id="Line-30"></path>
                <path d="M308.5625,422 L274.46733,411" id="Line-31"></path>
                <path d="M322.5,404.5 L283.5,385.5" id="Line-32"></path>
                <path d="M333.99858,384 L291.244318,359.5" id="Line-33"></path>
                <path d="M342.5625,360.5 L299.5,330.5" id="Line-34"></path>
                <path d="M352.5,323.5 L305.150568,307.5" id="Line-35"></path>
                <path d="M357.81108,291.5 L310.5,279.5" id="Line-36"></path>
                <path d="M362.140625,264.5 L313.5,256.5" id="Line-37"></path>
                <path d="M365.5,232.5 L313.5,225.5" id="Line-38"></path>
                <path d="M368.634943,203.5 L310.5,200.5" id="Line-39"></path>
                <path d="M370.5,172.5 L307.5,169.5" id="Line-40"></path>
                <path d="M375.129261,136.5 L305.5,142.5" id="Line-41"></path>
                <path d="M378.5,109 L303.150568,111.5" id="Line-42"></path>
                <path d="M379.634155,80 L304.5,82" id="Line-43"></path>
                <path d="M376.5,48.5 L309.5,53" id="Line-44"></path>
                <path d="M21.0078135,5.68434189e-14 C24.8751685,65.4406815 26.0414116,110.505399 24.5065428,135.194151 C19.8524065,210.057114 9.73899314,268.005454 15.9742941,311.022628 C20.0210556,338.941127 35.0884122,373.828744 56.3587212,409.717951 C69.2901335,431.537011 81.1387366,460.129869 98.0115699,477.280191 C108.826977,488.273468 121.909879,499.955415 172.594755,506.231285 C190.470416,508.444673 209.967799,500.722998 243.816624,477.280191 C266.189465,461.785349 285.858933,445.998575 304.339356,388.752632 C313.267918,361.095046 327.673363,335.818574 334.472824,293.415558 C342.20301,245.20832 345.341724,182.620821 350.230847,116.38563 C351.367873,100.981821 348.914182,70.0593149 342.869774,23.6181109" id="Line"></path>
            </g>
        </g>
    </g>
</svg>