<?xml version="1.0" encoding="UTF-8"?>
<svg width="380px" height="517px" viewBox="0 0 380 517" version="1.1" xmlns="http://www.w3.org/2000/svg" xmlns:xlink="http://www.w3.org/1999/xlink">
    <!-- Generator: Sketch 52.6 (67491) - http://www.bohemiancoding.com/sketch -->
    <title>hole</title>
    <desc>Created with Sketch.</desc>
    <g id="Page-1" stroke="none" stroke-width="1" fill="none" fill-rule="evenodd">
        <g id="mouth" transform="translate(-48.000000, -36.000000)" fill="#E9E9E9">
            <path d="M92.2801918,140.694285 C85.0306931,217.479801 74.9468712,283.383959 77.5357356,335.847212 C81.9647352,425.600743 174.908758,533.370091 226.834992,536.863502 C264.134947,539.372909 315.36379,479.294236 329.469569,428.206154 C335.830947,405.166619 356.496777,347.887097 361.48713,289.099579 C363.766427,262.248933 357.879309,254.958027 354.303228,192.636968 C352.630132,163.479598 346.854823,138.034716 354.303228,102.336701 C361.751633,66.6386861 365.414471,56.4987146 394.042161,59.5725583 C422.669852,62.6464021 423.425272,62.9375672 427.138895,109.373517 C430.852517,155.809467 421.538399,167.551047 418.480124,217.479801 C414.527237,282.013791 406.912864,346.654947 391.638358,397.161895 C372.681318,459.845573 340.026913,471.494438 315.213914,504.208064 C264.086539,571.614742 196.333562,555.23133 164.614502,536.863502 C132.895441,518.495673 120.704744,485.801153 104.063272,459.239665 C70.5759158,405.790424 50.8599104,373.01864 48.5821774,321.683691 C46.3044444,270.348741 50.8599104,277.386904 59.6299394,178.882837 C63.5509321,134.842648 51.8397966,111.478113 54.9641062,81.4333912 C58.0884158,51.3886692 64.6724249,25.1701302 80.7499763,40.5295784 C96.8275276,55.8890266 96.0683234,100.571008 92.2801918,140.694285 Z" id="hole"></path>
        </g>
    </g>
</svg>