<?xml version="1.0" encoding="UTF-8"?>
<svg width="478px" height="587px" viewBox="0 0 478 587" version="1.1" xmlns="http://www.w3.org/2000/svg" xmlns:xlink="http://www.w3.org/1999/xlink">
    <!-- Generator: Sketch 52.6 (67491) - http://www.bohemiancoding.com/sketch -->
    <title>lips</title>
    <desc>Created with Sketch.</desc>
    <g id="Page-1" stroke="none" stroke-width="1" fill="none" fill-rule="evenodd">
        <g id="mouth" fill="#99FC57">
            <path d="M138.101905,21.364402 C155.073534,39.0899412 166.000932,103.026647 164.121967,143.370802 C160.435878,222.516572 135.514161,318.763997 138.101905,371.203066 C142.528988,460.915223 177.111845,494.952316 229.015604,498.444116 C266.299414,500.952367 298.44367,454.570074 312.543344,403.505542 C318.901969,380.476628 324.624075,330.413341 329.612268,271.652922 C331.890578,244.814653 312.543344,205.875986 312.543344,143.370802 C312.543344,114.1388 313.501488,67.4371314 333.5506,44.4007667 C353.599711,21.364402 366.47649,10.9673722 395.09179,14.039799 C423.70709,17.1122258 437.49548,19.7373635 462.498175,59.3136584 C487.50087,98.8899532 475.48556,144.487272 472.428609,194.39301 C468.477433,258.897252 449.330554,334.739667 434.06266,385.223333 C415.113825,447.878115 397.6435,480.346184 369.655498,508.112592 C267.675676,609.28499 223.406337,586.175281 186.038719,581.260961 C148.671101,576.34664 125.913616,562.775989 102.307928,539.911135 C60.0793155,499.007815 31.6894252,430.716186 19.0297699,385.223333 C4.86268274,334.313478 -5.54478242,261.275795 3.22145069,162.817135 C7.14074631,118.797247 19.8948492,56.2607638 34.0681897,35.1502814 C48.2415302,14.039799 48.2415302,6.11323138e-15 81.5396797,0 C114.837829,0 121.130276,3.63886276 138.101905,21.364402 Z" id="lips"></path>
        </g>
    </g>
</svg>